<svg xmlns="http://www.w3.org/2000/svg" width="750" height="838" viewBox="0 0 750 838">
<title>Top Legal Nodes WIN vs LOSE</title>
<rect width="100%" height="100%" fill="#fafafa"/>
<style>text{font-family:Inter,Arial,Helvetica,sans-serif;fill:#1f2933}.fig-title{font-size:17px;font-weight:700}.subtitle{font-size:11px;fill:#52616b}.axis-label{font-size:12px;fill:#52616b}.tick{font-size:11px;fill:#6b7c93}.bar-label{font-size:12px;fill:#1f2933}.note{font-size:10px;fill:#8a9bb0}.legend{font-size:11px;fill:#1f2933}.annot{font-size:13px;font-weight:600}.section{font-size:12px;font-weight:600;fill:#2A6F97}</style>
<text x="375.0" y="28.0" text-anchor="middle" class="fig-title">Top Statutes &amp; Precedents: WIN vs LOSE Prediction Citation Rate</text>
<text x="375.0" y="46.0" text-anchor="middle" class="subtitle">% of WIN-predicted (n=8,131) vs LOSE-predicted (n=6,232) cases citing each node  |  Δ = WIN − LOSE</text>
<rect x="255.00" y="52.00" width="12.00" height="10.00" rx="3" fill="#2A6F97"/>
<text x="271.0" y="61.0" text-anchor="start" class="legend">WIN prediction</text>
<rect x="400.00" y="52.00" width="12.00" height="10.00" rx="3" fill="#C53B3B"/>
<text x="416.0" y="61.0" text-anchor="start" class="legend">LOSE prediction</text>
<text x="255.0" y="88.0" text-anchor="start" class="section">Statutes</text>
<line x1="255.0" y1="92.0" x2="635.0" y2="92.0" stroke="#d0d8e4" stroke-width="1"/>
<line x1="255.0" y1="98.0" x2="255.0" y2="418.0" stroke="#e5e9f0" stroke-width="1"/>
<line x1="350.0" y1="98.0" x2="350.0" y2="418.0" stroke="#e5e9f0" stroke-width="1"/>
<line x1="445.0" y1="98.0" x2="445.0" y2="418.0" stroke="#e5e9f0" stroke-width="1"/>
<line x1="540.0" y1="98.0" x2="540.0" y2="418.0" stroke="#e5e9f0" stroke-width="1"/>
<line x1="635.0" y1="98.0" x2="635.0" y2="418.0" stroke="#e5e9f0" stroke-width="1"/>
<text x="247.0" y="119.0" text-anchor="end" class="bar-label">us constitution</text>
<rect x="255.00" y="98.00" width="232.75" height="13.00" rx="2" fill="#2A6F97"/>
<text x="491.8" y="109.0" text-anchor="start" class="tick">49%</text>
<rect x="255.00" y="113.00" width="196.65" height="13.00" rx="2" fill="#C53B3B"/>
<text x="455.6" y="124.0" text-anchor="start" class="tick">41%</text>
<text x="643.0" y="116.0" class="tick" fill="#2F7D57">+7.5pp</text>
<text x="247.0" y="159.0" text-anchor="end" class="bar-label">la act</text>
<rect x="255.00" y="138.00" width="232.75" height="13.00" rx="2" fill="#2A6F97"/>
<text x="491.8" y="149.0" text-anchor="start" class="tick">49%</text>
<rect x="255.00" y="153.00" width="196.65" height="13.00" rx="2" fill="#C53B3B"/>
<text x="455.6" y="164.0" text-anchor="start" class="tick">41%</text>
<text x="643.0" y="156.0" class="tick" fill="#2F7D57">+7.5pp</text>
<text x="247.0" y="199.0" text-anchor="end" class="bar-label">constitution application to jammu an…</text>
<rect x="255.00" y="178.00" width="232.75" height="13.00" rx="2" fill="#2A6F97"/>
<text x="491.8" y="189.0" text-anchor="start" class="tick">49%</text>
<rect x="255.00" y="193.00" width="196.65" height="13.00" rx="2" fill="#C53B3B"/>
<text x="455.6" y="204.0" text-anchor="start" class="tick">41%</text>
<text x="643.0" y="196.0" class="tick" fill="#2F7D57">+7.5pp</text>
<text x="247.0" y="239.0" text-anchor="end" class="bar-label">jammu and kashmir constitution</text>
<rect x="255.00" y="218.00" width="232.75" height="13.00" rx="2" fill="#2A6F97"/>
<text x="491.8" y="229.0" text-anchor="start" class="tick">49%</text>
<rect x="255.00" y="233.00" width="196.65" height="13.00" rx="2" fill="#C53B3B"/>
<text x="455.6" y="244.0" text-anchor="start" class="tick">41%</text>
<text x="643.0" y="236.0" class="tick" fill="#2F7D57">+7.5pp</text>
<text x="247.0" y="279.0" text-anchor="end" class="bar-label">constitution of jammu kashmir</text>
<rect x="255.00" y="258.00" width="232.75" height="13.00" rx="2" fill="#2A6F97"/>
<text x="491.8" y="269.0" text-anchor="start" class="tick">49%</text>
<rect x="255.00" y="273.00" width="196.65" height="13.00" rx="2" fill="#C53B3B"/>
<text x="455.6" y="284.0" text-anchor="start" class="tick">41%</text>
<text x="643.0" y="276.0" class="tick" fill="#2F7D57">+7.5pp</text>
<text x="247.0" y="319.0" text-anchor="end" class="bar-label">neutral citation cca18912024</text>
<rect x="255.00" y="298.00" width="0.00" height="13.00" rx="2" fill="#2A6F97"/>
<rect x="255.00" y="313.00" width="0.00" height="13.00" rx="2" fill="#C53B3B"/>
<text x="643.0" y="316.0" class="tick" fill="#8A9BB0">+0.0pp</text>
<text x="247.0" y="359.0" text-anchor="end" class="bar-label">neutral citation cca12292023</text>
<rect x="255.00" y="338.00" width="0.00" height="13.00" rx="2" fill="#2A6F97"/>
<rect x="255.00" y="353.00" width="0.00" height="13.00" rx="2" fill="#C53B3B"/>
<text x="643.0" y="356.0" class="tick" fill="#8A9BB0">+0.0pp</text>
<text x="247.0" y="399.0" text-anchor="end" class="bar-label">land neutral citation cca16572024</text>
<rect x="255.00" y="378.00" width="0.00" height="13.00" rx="2" fill="#2A6F97"/>
<rect x="255.00" y="393.00" width="0.00" height="13.00" rx="2" fill="#C53B3B"/>
<text x="643.0" y="396.0" class="tick" fill="#8A9BB0">+0.0pp</text>
<text x="255.0" y="433.0" text-anchor="middle" class="tick">0%</text>
<text x="350.0" y="433.0" text-anchor="middle" class="tick">20%</text>
<text x="445.0" y="433.0" text-anchor="middle" class="tick">40%</text>
<text x="540.0" y="433.0" text-anchor="middle" class="tick">60%</text>
<text x="635.0" y="433.0" text-anchor="middle" class="tick">80%</text>
<line x1="255.0" y1="98.0" x2="255.0" y2="418.0" stroke="#9aabbd" stroke-width="1.5"/>
<line x1="255.0" y1="418.0" x2="635.0" y2="418.0" stroke="#9aabbd" stroke-width="1.5"/>
<text x="255.0" y="460.0" text-anchor="start" class="section">Precedents</text>
<line x1="255.0" y1="464.0" x2="635.0" y2="464.0" stroke="#d0d8e4" stroke-width="1"/>
<line x1="255.0" y1="470.0" x2="255.0" y2="790.0" stroke="#e5e9f0" stroke-width="1"/>
<line x1="350.0" y1="470.0" x2="350.0" y2="790.0" stroke="#e5e9f0" stroke-width="1"/>
<line x1="445.0" y1="470.0" x2="445.0" y2="790.0" stroke="#e5e9f0" stroke-width="1"/>
<line x1="540.0" y1="470.0" x2="540.0" y2="790.0" stroke="#e5e9f0" stroke-width="1"/>
<line x1="635.0" y1="470.0" x2="635.0" y2="790.0" stroke="#e5e9f0" stroke-width="1"/>
<text x="247.0" y="491.0" text-anchor="end" class="bar-label">2011 1 scc 343</text>
<rect x="255.00" y="470.00" width="232.75" height="13.00" rx="2" fill="#2A6F97"/>
<text x="491.8" y="481.0" text-anchor="start" class="tick">49%</text>
<rect x="255.00" y="485.00" width="196.65" height="13.00" rx="2" fill="#C53B3B"/>
<text x="455.6" y="496.0" text-anchor="start" class="tick">41%</text>
<text x="643.0" y="488.0" class="tick" fill="#2F7D57">+7.5pp</text>
<text x="247.0" y="531.0" text-anchor="end" class="bar-label">mangla ram vs oriental insurance co …</text>
<rect x="255.00" y="510.00" width="232.75" height="13.00" rx="2" fill="#2A6F97"/>
<text x="491.8" y="521.0" text-anchor="start" class="tick">49%</text>
<rect x="255.00" y="525.00" width="196.65" height="13.00" rx="2" fill="#C53B3B"/>
<text x="455.6" y="536.0" text-anchor="start" class="tick">41%</text>
<text x="643.0" y="528.0" class="tick" fill="#2F7D57">+7.5pp</text>
<text x="247.0" y="571.0" text-anchor="end" class="bar-label">1875 1 ch d 48</text>
<rect x="255.00" y="550.00" width="232.75" height="13.00" rx="2" fill="#2A6F97"/>
<text x="491.8" y="561.0" text-anchor="start" class="tick">49%</text>
<rect x="255.00" y="565.00" width="196.65" height="13.00" rx="2" fill="#C53B3B"/>
<text x="455.6" y="576.0" text-anchor="start" class="tick">41%</text>
<text x="643.0" y="568.0" class="tick" fill="#2F7D57">+7.5pp</text>
<text x="247.0" y="611.0" text-anchor="end" class="bar-label">collector land acquisition anantnag …</text>
<rect x="255.00" y="590.00" width="232.75" height="13.00" rx="2" fill="#2A6F97"/>
<text x="491.8" y="601.0" text-anchor="start" class="tick">49%</text>
<rect x="255.00" y="605.00" width="196.65" height="13.00" rx="2" fill="#C53B3B"/>
<text x="455.6" y="616.0" text-anchor="start" class="tick">41%</text>
<text x="643.0" y="608.0" class="tick" fill="#2F7D57">+7.5pp</text>
<text x="247.0" y="651.0" text-anchor="end" class="bar-label">collector land acquisition neutral c…</text>
<rect x="255.00" y="630.00" width="232.27" height="13.00" rx="2" fill="#2A6F97"/>
<text x="491.3" y="641.0" text-anchor="start" class="tick">49%</text>
<rect x="255.00" y="645.00" width="196.65" height="13.00" rx="2" fill="#C53B3B"/>
<text x="455.6" y="656.0" text-anchor="start" class="tick">41%</text>
<text x="643.0" y="648.0" class="tick" fill="#2F7D57">+7.5pp</text>
<text x="247.0" y="691.0" text-anchor="end" class="bar-label">yamuna expressway industrial authori…</text>
<rect x="255.00" y="670.00" width="0.00" height="13.00" rx="2" fill="#2A6F97"/>
<rect x="255.00" y="685.00" width="0.95" height="13.00" rx="2" fill="#C53B3B"/>
<text x="643.0" y="688.0" class="tick" fill="#C53B3B">-0.2pp</text>
<text x="247.0" y="731.0" text-anchor="end" class="bar-label">noida industrial development authori…</text>
<rect x="255.00" y="710.00" width="0.00" height="13.00" rx="2" fill="#2A6F97"/>
<rect x="255.00" y="725.00" width="0.95" height="13.00" rx="2" fill="#C53B3B"/>
<text x="643.0" y="728.0" class="tick" fill="#C53B3B">-0.2pp</text>
<text x="247.0" y="771.0" text-anchor="end" class="bar-label">shyoraj singh v state of up writc no…</text>
<rect x="255.00" y="750.00" width="0.00" height="13.00" rx="2" fill="#2A6F97"/>
<rect x="255.00" y="765.00" width="0.95" height="13.00" rx="2" fill="#C53B3B"/>
<text x="643.0" y="768.0" class="tick" fill="#C53B3B">-0.2pp</text>
<text x="255.0" y="805.0" text-anchor="middle" class="tick">0%</text>
<text x="350.0" y="805.0" text-anchor="middle" class="tick">20%</text>
<text x="445.0" y="805.0" text-anchor="middle" class="tick">40%</text>
<text x="540.0" y="805.0" text-anchor="middle" class="tick">60%</text>
<text x="635.0" y="805.0" text-anchor="middle" class="tick">80%</text>
<line x1="255.0" y1="470.0" x2="255.0" y2="790.0" stroke="#9aabbd" stroke-width="1.5"/>
<line x1="255.0" y1="790.0" x2="635.0" y2="790.0" stroke="#9aabbd" stroke-width="1.5"/>
<text x="375.0" y="824.0" text-anchor="middle" class="note">Positive Δ = node cited more often in WIN predictions; Negative Δ = cited more in LOSE predictions</text>
</svg>
